Coordinates
version=1
nRows=30
nColumns=19
inDegrees=yes

Units are S.I. units (second, meters, Newtons, ...)
If the header above contains a line with 'inDegrees', this indicates whether rotational values are in degrees (yes) or radians (no).

endheader
time	pelvis_tilt	pelvis_list	pelvis_rotation	pelvis_tx	pelvis_ty	pelvis_tz	hip_flexion_r	hip_adduction_r	hip_rotation_r	knee_angle_r	knee_angle_r_beta	ankle_angle_r	hip_flexion_l	hip_adduction_l	hip_rotation_l	knee_angle_l	knee_angle_l_beta	ankle_angle_l
     14.98666667	     -5.10858943	     -4.93239232	      0.20429923	      2.41588414	      1.03642973	      1.02316987	     32.11354131	      7.27440191	     -2.75890350	     19.46480380	      0.33972491	     -5.62022446	    -14.38372873	     -6.97345005	     -2.42477336	     71.43798132	      1.24682799	    -25.38690828
     14.99333333	     -5.26120857	     -5.26876798	     -0.30583140	      2.41423703	      1.03224169	      1.02312271	     32.44618294	      7.85425764	     -3.52284327	     21.52760637	      0.37572761	     -4.79019282	    -12.48337311	     -6.91233988	     -1.58244114	     76.08811354	      1.32798810	    -27.11138506
     15.00000000	     -5.07310364	     -5.69895082	     -0.90573314	      2.41253138	      1.02808538	      1.02301319	     32.40895705	      8.53039076	     -4.31877719	     23.99459347	      0.41878466	     -3.53418064	    -10.94857894	     -6.99385761	     -1.04297575	     80.50381654	      1.40505666	    -28.72093351
     15.00666667	     -5.72604836	     -5.72737866	     -1.35127285	      2.41048793	      1.02270405	      1.02261023	     33.36558474	      8.65941611	     -5.12596111	     26.99530571	      0.47115697	     -1.88615228	     -8.24997288	     -6.65773191	     -0.17480734	     84.95786352	      1.48279444	    -30.10713372
     15.01333333	     -5.99450113	     -5.82297944	     -1.82719465	      2.40840611	      1.01754939	      1.02214343	     33.76980098	      8.88762967	     -5.69854277	     30.04125705	      0.52431885	      0.14576284	     -5.95678904	     -6.50665167	      0.41531857	     89.13306271	      1.55566542	    -31.10485988
     15.02000000	     -6.25668051	     -5.82313833	     -2.29061265	      2.40619071	      1.01231352	      1.02162648	     34.04139495	      9.04735623	     -5.96984311	     33.10281780	      0.57775316	      2.48610636	     -3.57972788	     -6.36142968	      0.90221901	     93.10435769	      1.62497759	    -31.61910463
     15.02666667	     -6.47329178	     -5.83156867	     -2.66266426	      2.40387593	      1.00723593	      1.02103419	     34.07811505	      9.22018798	     -6.01908140	     35.98935358	      0.62813272	      5.03979390	     -1.14301148	     -6.37006826	      1.35520051	     96.85869754	      1.69050318	    -31.64677327
     15.03333333	     -6.63023880	     -5.81968962	     -2.99142546	      2.40146830	      1.00245145	      1.02045713	     33.85234700	      9.41460624	     -5.80077586	     38.63859782	      0.67437075	      7.74232431	      1.33214543	     -6.49708008	      1.74411676	    100.36400046	      1.75168226	    -31.19973762
     15.04000000	     -6.25938093	     -5.98031207	     -3.25896976	      2.39910844	      0.99871513	      1.01994790	     32.77476238	      9.81934571	     -5.37350695	     40.84762961	      0.71292563	     10.51040138	      3.27311122	     -6.93992126	      2.05894483	    103.51403448	      1.80666072	    -30.25464099
     15.04666667	     -5.71568011	     -6.13437291	     -3.47081733	      2.39661392	      0.99573816	      1.01945197	     31.29383342	     10.22171887	     -4.78635096	     42.70454795	      0.74533497	     13.10851748	      5.16490622	     -7.44879686	      2.39205579	    106.34340999	      1.85604264	    -29.36066701
     15.05333333	     -6.65788517	     -5.88825795	     -3.50589356	      2.39388865	      0.99135886	      1.01877111	     31.35462601	     10.13788928	     -4.26641162	     44.42634780	      0.77538604	     15.73035609	      8.99321518	     -7.54386428	      3.08429192	    109.18675474	      1.90566837	    -27.63016139
     15.06000000	     -6.39909811	     -5.90821549	     -3.56127558	      2.39144051	      0.98917424	      1.01822307	     29.77136723	     10.33371337	     -3.61876717	     45.54846057	      0.79497061	     18.07100314	     11.45627938	     -7.96982901	      3.55524329	    111.44108607	      1.94501387	    -25.96298957
     15.06666667	     -6.16937624	     -5.88313061	     -3.54014614	      2.38913556	      0.98757493	      1.01773478	     28.00655928	     10.44393128	     -2.96620727	     46.27000745	      0.80756397	     20.18425432	     14.03377178	     -8.34095060	      4.07317900	    113.34509542	      1.97824511	    -24.11601690
     15.07333333	     -5.81889054	     -5.75072220	     -3.56659006	      2.38710673	      0.98682611	      1.01734414	     25.87431501	     10.43533849	     -2.22085082	     46.58164052	      0.81300300	     22.08772863	     16.49805237	     -8.53879432	      4.46661836	    114.81449327	      2.00389094	    -22.38697654
     15.08000000	     -5.65091909	     -5.61458061	     -3.39884420	      2.38522614	      0.98634557	      1.01698259	     23.79634746	     10.31269362	     -1.72753548	     46.57259581	      0.81284514	     23.50395339	     19.24398107	     -8.72327857	      4.99035124	    115.97308472	      2.02411217	    -20.44232297
     15.08666667	     -5.46174065	     -5.32248151	     -3.28743271	      2.38367009	      0.98651354	      1.01686218	     21.49890848	     10.05975400	     -1.10558200	     46.21126051	      0.80653865	     24.68517846	     21.91806396	     -8.68909750	      5.32235177	    116.69501050	      2.03671215	    -18.59956842
     15.09333333	     -5.34808406	     -4.94300565	     -3.21594829	      2.38242680	      0.98710301	      1.01694728	     19.12713224	      9.68735988	     -0.54370546	     45.55073918	      0.79501038	     25.49223978	     24.59937911	     -8.52005533	      5.49782518	    117.03233162	      2.04259952	    -16.75604694
     15.10000000	     -5.28443076	     -4.46576843	     -3.05124547	      2.38163678	      0.98810690	      1.01723325	     16.66515327	      9.18341718	     -0.09198219	     44.59574710	      0.77834262	     25.86148307	     27.24314017	     -8.22769980	      5.57042699	    116.97647302	      2.04162460	    -14.88245678
     15.10666667	     -5.48033678	     -3.90671544	     -3.01170078	      2.38127385	      0.98932638	      1.01790032	     14.34360220	      8.63349365	      0.43116750	     43.36409126	      0.75684617	     25.74414579	     30.03487870	     -7.91163465	      5.37343611	    116.53615270	      2.03393956	    -13.27759713
     15.11333333	     -5.18203961	     -3.15412439	     -2.74842385	      2.38143045	      0.99144625	      1.01850649	     11.38406847	      7.77243349	      0.68019229	     41.89314868	      0.73117338	     25.28922927	     32.07528149	     -7.22603877	      5.08241165	    115.67920627	      2.01898303	    -11.28258778
     15.12000000	     -5.21499869	     -2.36050063	     -2.70338591	      2.38199870	      0.99363212	      1.01964631	      8.69364761	      6.94180846	      1.09750987	     40.20578265	      0.70172329	     24.27840659	     34.28088199	     -6.70421428	      4.42202718	    114.47037132	      1.99788488	     -9.52267875
     15.12666667	     -5.38081023	     -1.45796426	     -2.63021507	      2.38305735	      0.99603448	      1.02087445	      6.09413005	      5.97430981	      1.40365489	     38.33878940	      0.66913811	     22.74537048	     36.43924900	     -6.08779965	      3.57473189	    112.91555438	      1.97074820	     -7.85513551
     15.13333333	     -5.63635900	     -0.46985026	     -2.53809737	      2.38453365	      0.99867960	      1.02220349	      3.56845739	      4.88729177	      1.55755167	     36.32371268	      0.63396838	     20.68159238	     38.49245566	     -5.41931320	      2.54330280	    111.02017077	      1.93766752	     -6.30237250
     15.14000000	     -5.89036070	      0.55862808	     -2.43586623	      2.38643545	      1.00163911	      1.02360258	      1.01911166	      3.73827656	      1.58676099	     34.13917767	      0.59584105	     18.08185662	     40.32329332	     -4.77152831	      1.33012252	    108.79622374	      1.89885232	     -4.90167772
     15.14666667	     -6.26170279	      1.58278075	     -2.27948453	      2.38862143	      1.00471286	      1.02492421	     -1.35964429	      2.57188343	      1.40829946	     31.90027769	      0.55676488	     14.90579098	     42.09462132	     -4.13335312	      0.03478596	    106.28077488	      1.85494945	     -3.67456855
     15.15333333	     -7.38841494	      2.24827763	     -2.20970922	      2.39088555	      1.00698546	      1.02624068	     -2.78984438	      1.81718765	      1.25387056	     29.78107021	      0.51977773	     11.25535042	     44.56465816	     -3.96193993	     -1.18444849	    103.62519100	      1.80860077	     -2.64661509
     15.16000000	     -6.85547660	      3.52486392	     -1.94762818	      2.39398737	      1.01156719	      1.02738462	     -6.15590815	      0.30386195	      0.50022221	     27.24026615	      0.47543233	      7.26238920	     44.80100121	     -3.07984582	     -2.88903176	    100.40641488	      1.75242253	     -1.64186440
     15.16666667	     -7.34003779	      4.39399760	     -1.59066787	      2.39687256	      1.01491270	      1.02813716	     -8.18390636	     -0.72003482	     -0.42426263	     25.04783375	      0.43716717	      2.94453021	     46.09775182	     -2.50808752	     -4.28294238	     97.09479369	      1.69462384	     -0.90653144
     15.17333333	     -7.87106114	      5.13952134	     -1.10172567	      2.39985090	      1.01820976	      1.02851501	    -10.03334562	     -1.59038483	     -1.62382507	     23.01322628	      0.40165657	     -1.53675858	     47.26436504	     -1.91556540	     -5.57605938	     93.55237414	      1.63279695	     -0.30600573
     15.18000000	     -8.26238824	      5.73711995	     -0.62076979	      2.40284141	      1.02161283	      1.02864980	    -11.87987782	     -2.29007428	     -2.90966153	     21.17068885	      0.36949823	     -6.06520677	     48.07018625	     -1.42198360	     -6.86387517	     89.76770721	      1.56674205	      0.21939463
